<svg width="141" height="20" viewBox="0 0 141 20" fill="none" xmlns="http://www.w3.org/2000/svg">
<path d="M6.475 2.854C8.177 2.854 9.66433 3.19133 10.937 3.866C12.2097 4.54067 13.191 5.49133 13.881 6.718C14.5863 7.92933 14.939 9.33233 14.939 10.927C14.939 12.5063 14.5863 13.9093 13.881 15.136C13.191 16.3627 12.202 17.3133 10.914 17.988C9.64133 18.6627 8.16167 19 6.475 19H0.426V2.854H6.475ZM6.222 15.596C7.70933 15.596 8.867 15.1897 9.695 14.377C10.523 13.5643 10.937 12.4143 10.937 10.927C10.937 9.43967 10.523 8.282 9.695 7.454C8.867 6.626 7.70933 6.212 6.222 6.212H4.359V15.596H6.222ZM22.9789 19.184C21.7216 19.184 20.5869 18.9157 19.5749 18.379C18.5783 17.8423 17.7886 17.0757 17.2059 16.079C16.6386 15.0823 16.3549 13.917 16.3549 12.583C16.3549 11.2643 16.6463 10.1067 17.2289 9.11C17.8116 8.098 18.6089 7.32367 19.6209 6.787C20.6329 6.25033 21.7676 5.982 23.0249 5.982C24.2823 5.982 25.4169 6.25033 26.4289 6.787C27.4409 7.32367 28.2383 8.098 28.8209 9.11C29.4036 10.1067 29.6949 11.2643 29.6949 12.583C29.6949 13.9017 29.3959 15.067 28.7979 16.079C28.2153 17.0757 27.4103 17.8423 26.3829 18.379C25.3709 18.9157 24.2363 19.184 22.9789 19.184ZM22.9789 15.78C23.7303 15.78 24.3666 15.504 24.8879 14.952C25.4246 14.4 25.6929 13.6103 25.6929 12.583C25.6929 11.5557 25.4323 10.766 24.9109 10.214C24.4049 9.662 23.7763 9.386 23.0249 9.386C22.2583 9.386 21.6219 9.662 21.1159 10.214C20.6099 10.7507 20.3569 11.5403 20.3569 12.583C20.3569 13.6103 20.6023 14.4 21.0929 14.952C21.5989 15.504 22.2276 15.78 22.9789 15.78ZM50.2045 6.166L46.7315 19H42.3845L40.3605 10.674L38.2675 19H33.9435L30.4475 6.166H34.3805L36.1975 15.343L38.3595 6.166H42.5225L44.7075 15.297L46.5015 6.166H50.2045ZM53.6823 4.832C52.9923 4.832 52.425 4.63267 51.9803 4.234C51.551 3.82 51.3363 3.314 51.3363 2.716C51.3363 2.10267 51.551 1.59667 51.9803 1.198C52.425 0.783999 52.9923 0.576999 53.6823 0.576999C54.357 0.576999 54.909 0.783999 55.3383 1.198C55.783 1.59667 56.0053 2.10267 56.0053 2.716C56.0053 3.314 55.783 3.82 55.3383 4.234C54.909 4.63267 54.357 4.832 53.6823 4.832ZM55.6373 6.166V19H51.7043V6.166H55.6373ZM65.6405 15.665V19H63.6395C62.2135 19 61.1019 18.655 60.3045 17.965C59.5072 17.2597 59.1085 16.1173 59.1085 14.538V9.432H57.5445V6.166H59.1085V3.038H63.0415V6.166H65.6175V9.432H63.0415V14.584C63.0415 14.9673 63.1335 15.2433 63.3175 15.412C63.5015 15.5807 63.8082 15.665 64.2375 15.665H65.6405ZM75.7203 6.028C77.1923 6.028 78.3729 6.51867 79.2623 7.5C80.1516 8.466 80.5963 9.8 80.5963 11.502V19H76.6863V12.031C76.6863 11.1723 76.4639 10.5053 76.0193 10.03C75.5746 9.55467 74.9766 9.317 74.2253 9.317C73.4739 9.317 72.8759 9.55467 72.4313 10.03C71.9866 10.5053 71.7643 11.1723 71.7643 12.031V19H67.8313V1.98H71.7643V7.891C72.1629 7.32367 72.7073 6.87133 73.3973 6.534C74.0873 6.19667 74.8616 6.028 75.7203 6.028ZM85.1693 19.184C84.4793 19.184 83.912 18.9847 83.4673 18.586C83.038 18.172 82.8233 17.666 82.8233 17.068C82.8233 16.4547 83.038 15.941 83.4673 15.527C83.912 15.113 84.4793 14.906 85.1693 14.906C85.844 14.906 86.396 15.113 86.8253 15.527C87.27 15.941 87.4923 16.4547 87.4923 17.068C87.4923 17.666 87.27 18.172 86.8253 18.586C86.396 18.9847 85.844 19.184 85.1693 19.184ZM96.9735 15.665V19H94.9725C93.5465 19 92.4349 18.655 91.6375 17.965C90.8402 17.2597 90.4415 16.1173 90.4415 14.538V9.432H88.8775V6.166H90.4415V3.038H94.3745V6.166H96.9505V9.432H94.3745V14.584C94.3745 14.9673 94.4665 15.2433 94.6505 15.412C94.8345 15.5807 95.1412 15.665 95.5705 15.665H96.9735ZM111.262 12.376C111.262 12.744 111.239 13.1273 111.193 13.526H102.292C102.354 14.3233 102.607 14.9367 103.051 15.366C103.511 15.78 104.071 15.987 104.73 15.987C105.712 15.987 106.394 15.573 106.777 14.745H110.963C110.749 15.5883 110.358 16.3473 109.79 17.022C109.238 17.6967 108.541 18.2257 107.697 18.609C106.854 18.9923 105.911 19.184 104.868 19.184C103.611 19.184 102.492 18.9157 101.51 18.379C100.529 17.8423 99.7623 17.0757 99.2103 16.079C98.6583 15.0823 98.3823 13.917 98.3823 12.583C98.3823 11.249 98.6506 10.0837 99.1873 9.087C99.7393 8.09033 100.506 7.32367 101.487 6.787C102.469 6.25033 103.596 5.982 104.868 5.982C106.11 5.982 107.214 6.24267 108.18 6.764C109.146 7.28533 109.898 8.029 110.434 8.995C110.986 9.961 111.262 11.088 111.262 12.376ZM107.237 11.341C107.237 10.6663 107.007 10.1297 106.547 9.731C106.087 9.33233 105.512 9.133 104.822 9.133C104.163 9.133 103.603 9.32467 103.143 9.708C102.699 10.0913 102.423 10.6357 102.315 11.341H107.237ZM112.555 12.583C112.555 11.249 112.823 10.0837 113.36 9.087C113.912 8.09033 114.671 7.32367 115.637 6.787C116.618 6.25033 117.738 5.982 118.995 5.982C120.605 5.982 121.947 6.40367 123.02 7.247C124.109 8.09033 124.822 9.27867 125.159 10.812H120.973C120.62 9.83067 119.938 9.34 118.926 9.34C118.205 9.34 117.63 9.62367 117.201 10.191C116.772 10.743 116.557 11.5403 116.557 12.583C116.557 13.6257 116.772 14.4307 117.201 14.998C117.63 15.55 118.205 15.826 118.926 15.826C119.938 15.826 120.62 15.3353 120.973 14.354H125.159C124.822 15.8567 124.109 17.0373 123.02 17.896C121.931 18.7547 120.59 19.184 118.995 19.184C117.738 19.184 116.618 18.9157 115.637 18.379C114.671 17.8423 113.912 17.0757 113.36 16.079C112.823 15.0823 112.555 13.917 112.555 12.583ZM135.152 6.028C136.624 6.028 137.805 6.51867 138.694 7.5C139.583 8.466 140.028 9.8 140.028 11.502V19H136.118V12.031C136.118 11.1723 135.896 10.5053 135.451 10.03C135.006 9.55467 134.408 9.317 133.657 9.317C132.906 9.317 132.308 9.55467 131.863 10.03C131.418 10.5053 131.196 11.1723 131.196 12.031V19H127.263V1.98H131.196V7.891C131.595 7.32367 132.139 6.87133 132.829 6.534C133.519 6.19667 134.293 6.028 135.152 6.028Z" fill="#5267DF"/>
</svg>
